<svg width="180" height="180" viewBox="0 0 180 180" fill="none" xmlns="http://www.w3.org/2000/svg">
  <defs>
    <linearGradient id="icon-gradient" x1="0%" y1="0%" x2="100%" y2="100%">
      <stop offset="0%" style="stop-color:#ec4899;stop-opacity:1" />
      <stop offset="100%" style="stop-color:#a855f7;stop-opacity:1" />
    </linearGradient>
  </defs>
  
  <!-- Background with rounded corners -->
  <rect width="180" height="180" rx="40" fill="url(#icon-gradient)"/>
  
  <!-- Large center circle -->
  <circle cx="90" cy="90" r="50" fill="white" opacity="0.9"/>
  
  <!-- Sparkle Icon -->
  <path d="M90 50 L100 75 L125 85 L100 95 L90 120 L80 95 L55 85 L80 75 Z" fill="#a855f7"/>
  <path d="M70 65 L77 82 L94 89 L77 96 L70 113 L63 96 L46 89 L63 82 Z" fill="#ec4899" opacity="0.8"/>
  <path d="M110 65 L117 82 L134 89 L117 96 L110 113 L103 96 L86 89 L103 82 Z" fill="#ec4899" opacity="0.8"/>
</svg>


